<svg xmlns="http://www.w3.org/2000/svg" viewBox="0 0 100 100" xml:space="preserve"><path fill="#C06C2D" d="M75.592 65.361A3.211 3.211 0 0 1 73.96 69.6L28.955 89.589a3.212 3.212 0 0 1-4.239-1.632l-1.086-2.446a3.211 3.211 0 0 1 1.632-4.239l45.005-19.988a3.212 3.212 0 0 1 4.239 1.631l1.086 2.446z"/><path fill="#C06C2D" d="M75.495 86.588a3.212 3.212 0 0 1-4.151 1.844l-45.958-17.69a3.211 3.211 0 0 1-1.844-4.15l.961-2.498a3.211 3.211 0 0 1 4.151-1.843l45.958 17.69a3.212 3.212 0 0 1 1.843 4.151l-.96 2.496z"/><path fill="#ED9944" d="m49.587 79.897-11.59-4.461-12.76 5.667a3.212 3.212 0 0 0-1.632 4.239l1.086 2.446a3.213 3.213 0 0 0 4.239 1.632l20.656-9.174v-.349z"/><path fill="#ED9944" d="m50 70.381-20.955-8.066a3.211 3.211 0 0 0-4.151 1.843l-.962 2.498a3.213 3.213 0 0 0 1.844 4.151L50 80.131v-9.75z"/><path fill="#C0321F" d="M42.375 71.712s-16.101-7.675-8.921-25.872c4.178-10.589 4.817-8.921 5.71-14.274.829-4.978-1.732-6.602-1.732-6.602s6.015 1.249 4.944 10.527c-1.071 9.278.974 7.242.974 7.242s1.411-3.16 2.773-7.777c1.128-3.827-1.785-13.381-4.282-16.237-2.498-2.854 5.531 3.747 5.531 3.747s.223-8.029 4.929-11.419c4.706-3.39-2.431 3.39 1.137 8.207s8.743 8.007 4.639 21.667c-4.104 13.66 5.352-3.647 6.066-7.572.714-3.925 3.747 4.282 1.785 9.278-1.963 4.996-4.282 9.992-4.282 9.992s1.606-10.17 11.776-10.705c10.17-.535-6.78.535-6.602 11.955.178 11.419-3.148 16.675-11.6 19.091-4.995 1.429-10.169.114-12.845-1.248z"/><path fill="#E33E30" d="M51.242 11.852c-3.68 3.731-3.871 10.505-3.871 10.505s-8.029-6.601-5.531-3.746c2.498 2.854 5.411 12.41 4.282 16.236-1.362 4.618-2.773 7.777-2.773 7.777s-2.044 2.036-.974-7.241c1.07-9.278-4.944-10.527-4.944-10.527s2.562 1.624 1.732 6.602c-.892 5.353-1.532 3.684-5.71 14.274-7.179 18.196 8.921 25.871 8.921 25.871 1.963.999 5.272 1.971 8.867 1.855V11.852z"/></svg>